<svg xmlns="http://www.w3.org/2000/svg" width="14.97" height="16.97" viewBox="0 0 14.97 16.97">
  <defs>
    <style>
      .cls-1 {
        fill: #fff;
        fill-rule: evenodd;
      }
    </style>
  </defs>
  <path id="icon" class="cls-1" d="M1400.28,1898.36v6.59a3.243,3.243,0,0,0-2.73.18c-1.46.75-1.88,2.11-1.31,2.97a2.8,2.8,0,0,0,3.56.48,2.536,2.536,0,0,0,1.56-2.15v-8.28l8.58-1.7v7.44a3.265,3.265,0,0,0-2.74.18c-1.46.75-1.87,2.11-1.31,2.97a2.8,2.8,0,0,0,3.56.48,2.536,2.536,0,0,0,1.56-2.15v-13.38l-10.73,2.12v4.25Z" transform="translate(-1396.03 -1892)"/>
</svg>
