<?xml version="1.0" encoding="utf-8"?><svg xmlns="http://www.w3.org/2000/svg"><symbol viewBox="0 0 14.97 16.97" id="audio" xmlns="http://www.w3.org/2000/svg"><path id="aicon" d="M1400.28 1898.36v6.59a3.243 3.243 0 0 0-2.73.18c-1.46.75-1.88 2.11-1.31 2.97a2.8 2.8 0 0 0 3.56.48 2.536 2.536 0 0 0 1.56-2.15v-8.28l8.58-1.7v7.44a3.265 3.265 0 0 0-2.74.18c-1.46.75-1.87 2.11-1.31 2.97a2.8 2.8 0 0 0 3.56.48 2.536 2.536 0 0 0 1.56-2.15v-13.38l-10.73 2.12v4.25z" transform="translate(-1396.03 -1892)" fill-rule="evenodd"/></symbol><symbol viewBox="0 0 21 21" id="chain" xmlns="http://www.w3.org/2000/svg"><path id="bicon" d="M1023.94 1833.05a3.573 3.573 0 0 0-5.06 0l-3.83 3.83a3.558 3.558 0 0 0-.71 4.05l-1.41 1.41a3.558 3.558 0 0 0-4.05.71l-3.83 3.82a3.589 3.589 0 0 0 5.07 5.08l3.83-3.83a3.594 3.594 0 0 0 .62-4.23l1.32-1.32a3.594 3.594 0 0 0 4.23-.62l3.83-3.83a3.594 3.594 0 0 0-.01-5.07zm-11.16 13.9l-3.83 3.83a1.934 1.934 0 0 1-2.73-2.74l3.83-3.82a1.9 1.9 0 0 1 1.56-.56l-1.02 1.02a1.135 1.135 0 0 0 0 1.6 1.123 1.123 0 0 0 1.59 0l1.11-1.11a1.927 1.927 0 0 1-.51 1.78zm9.99-10l-3.82 3.83a1.927 1.927 0 0 1-1.78.51l.68-.68a1.135 1.135 0 0 0 0-1.6 1.123 1.123 0 0 0-1.59 0l-.6.6a1.928 1.928 0 0 1 .56-1.56l3.83-3.83a1.927 1.927 0 1 1 2.72 2.73z" transform="translate(-1004 -1832)" fill-rule="evenodd"/></symbol><symbol viewBox="0 0 17 17" id="grid" xmlns="http://www.w3.org/2000/svg"><path id="cForma_1" data-name="Forma 1" d="M1006 2064.44h7.44V2057H1006v7.44zm9.56-7.44v7.44h7.44V2057h-7.44zm0 17h7.44v-7.44h-7.44v7.44zm-9.56 0h7.44v-7.44H1006v7.44z" transform="translate(-1006 -2057)" fill-rule="evenodd"/></symbol><symbol viewBox="0 0 26 20" id="image" xmlns="http://www.w3.org/2000/svg"><path id="dForma_1" data-name="Forma 1" d="M1025.28 1485h-22.56a1.7 1.7 0 0 0-1.72 1.67v16.66a1.7 1.7 0 0 0 1.72 1.67h22.56a1.7 1.7 0 0 0 1.72-1.67v-16.66a1.7 1.7 0 0 0-1.72-1.67zm-22.56 1.43h22.56a.246.246 0 0 1 .25.24v11.09l-3.93-4.9a1.565 1.565 0 0 0-2.39-.09l-5.1 5.48a.485.485 0 0 1-.55.08l-4.19-2.57a2.307 2.307 0 0 0-2.45.11l-4.45 3.29v-12.49a.246.246 0 0 1 .25-.24zm22.56 17.14h-22.56a.246.246 0 0 1-.25-.24v-2.37l5.34-3.96a.839.839 0 0 1 .77-.03l4.2 2.57a1.983 1.983 0 0 0 2.42-.33l5.1-5.48a.126.126 0 0 1 .07-.04.091.091 0 0 1 .07.05l5.09 6.35v3.24a.246.246 0 0 1-.25.24zm-13.42-8.89a2.536 2.536 0 1 0-2.6-2.54 2.578 2.578 0 0 0 2.6 2.54zm0-3.64a1.105 1.105 0 1 1-1.13 1.1 1.125 1.125 0 0 1 1.13-1.1z" transform="translate(-1001 -1485)" fill-rule="evenodd"/></symbol><symbol viewBox="0 0 16 16" id="pancil" xmlns="http://www.w3.org/2000/svg"><path id="eIcon" d="M1405.94 1366.67l3.25 3.27-8.23 8.28-3.25-3.27zm5.72-.79l-1.45-1.46a1.436 1.436 0 0 0-2.03 0l-1.39 1.4 3.25 3.27 1.62-1.63a1.111 1.111 0 0 0 0-1.58zm-15.65 13.67a.373.373 0 0 0 .45.44l3.62-.89-3.25-3.27z" transform="translate(-1396 -1364)" fill-rule="evenodd"/></symbol><symbol viewBox="0 0 14 13" id="qu" xmlns="http://www.w3.org/2000/svg"><text id="f_" data-name="“" x="6.999" y="37.999" font-size="50" text-anchor="middle" font-family="Kartika"><tspan x="6.999">“</tspan></text></symbol><symbol viewBox="0 0 26 22" id="video" xmlns="http://www.w3.org/2000/svg"><path id="gForma_1" data-name="Forma 1" d="M637.589 1797.55a9.668 9.668 0 0 0-5.729-1.28 10.76 10.76 0 0 0 2.84-7.27 11.353 11.353 0 1 0-11.348 11 11.686 11.686 0 0 0 4.559-.92c.046-.02.385-.18.446-.21 1.254-.56 4.954-1.91 8.336.1a.879.879 0 0 0 1.184-.27.823.823 0 0 0-.288-1.15zm-9.347-12.72a2.467 2.467 0 0 1 3.088 1.52 2.369 2.369 0 0 1-1.573 3 2.473 2.473 0 0 1-3.088-1.53 2.355 2.355 0 0 1 1.573-2.99zm-4.895-4.1a2.376 2.376 0 1 1-2.45 2.38 2.412 2.412 0 0 1 2.45-2.38zm-7.982 5.62a2.468 2.468 0 0 1 3.088-1.52 2.355 2.355 0 0 1 1.573 2.99 2.472 2.472 0 0 1-3.087 1.53 2.369 2.369 0 0 1-1.574-3zm6.472 8.57a2.5 2.5 0 0 1-3.423.53 2.331 2.331 0 0 1-.542-3.32 2.5 2.5 0 0 1 3.423-.52 2.321 2.321 0 0 1 .542 3.31zm1.51-4.98a.941.941 0 1 1 .972-.94.955.955 0 0 1-.972.94zm1.511 4.98a2.32 2.32 0 0 1 .543-3.31 2.5 2.5 0 0 1 3.422.52 2.33 2.33 0 0 1-.542 3.32 2.5 2.5 0 0 1-3.423-.53z" transform="translate(-612 -1778)" fill-rule="evenodd"/></symbol></svg>